# xmcd
#
# Track frame offsets: 
#        150
#        12506
#        28498
#        41695
#        55786
#        71895
#        82305
#        92008
#        107098
#        120301
#        128446
#        141038
#        155969
#        169373
#        183089
#        194494
#        205383
#        217830
#        229950
#        241835
#        253817
#        266222
#        278892
#        289060
#        304562
#
# Disc length: 4291 seconds
#
# Revision: 0
# Processed by: cddbd v1.5.1PL0 Copyright (c) Steve Scherf et al.
# Submitted via: ExactAudioCopy v0.95a5
#
DISCID=7d10c119
DTITLE=Various Artist - Counntry klassiker CD2
DYEAR=2003
DGENRE=Country
TTITLE0=Hank Williams - Lovesick blues
TTITLE1=Willie Nelson - Always on my mind
TTITLE2=Lynn Anderson - (I never promised you a) rose garden
TTITLE3=Don Williams - You're my best friend (live)
TTITLE4=Johnny Cash - A boy named Sue (live)
TTITLE5=Waylon Jennings - White lightnin'
TTITLE6=Dolly Parton - Something fishy
TTITLE7=Boxcar Willie - Train medly
TTITLE8=Freddy Fender - Wasted days and wasted nights
TTITLE9=Don Gibson - Blue, blue day
TTITLE10=Gene Autry - The silver haired daddy of mine
TTITLE11=Melba Montgomery - No charge
TTITLE12=David Houston - Almost persuaded
TTITLE13=Bill Monroe - Blue moon of Kentucky
TTITLE14=Donna Fargo - The happiest girl in the whole USA
TTITLE15=Hank Tompson - Humpty dumpty heart
TTITLE16=Bobby Bare - 500 miles away from home
TTITLE17=Wanda Jackson - In the middle of a heartache
TTITLE18=Del Reeves - Girl on the billboard
TTITLE19=Stonewall Jackson - Waterloo
TTITLE20=The oak ridge boys - The old country church
TTITLE21=Jim Reeves - Girl on the billboard
TTITLE22=Patsy Cline - Three cigarettes in an ashtray
TTITLE23=Jimmie Rodgers - Blue yodel (T for Texas)
TTITLE24=Glen Campell - Southern night (live)
EXTD=
EXTT0=
EXTT1=
EXTT2=
EXTT3=
EXTT4=
EXTT5=
EXTT6=
EXTT7=
EXTT8=
EXTT9=
EXTT10=
EXTT11=
EXTT12=
EXTT13=
EXTT14=
EXTT15=
EXTT16=
EXTT17=
EXTT18=
EXTT19=
EXTT20=
EXTT21=
EXTT22=
EXTT23=
EXTT24=
PLAYORDER=
